<svg xmlns="http://www.w3.org/2000/svg" xmlns:xlink="http://www.w3.org/1999/xlink" width="971" height="97" viewBox="0 0 971 97">
  <defs>
    <clipPath id="clip-path">
      <rect id="長方形_23" data-name="長方形 23" width="971" height="97" transform="translate(2709 1243)" fill="#fff" stroke="#707070" stroke-width="1"/>
    </clipPath>
  </defs>
  <g id="マスクグループ_9" data-name="マスクグループ 9" transform="translate(-2709 -1243)" clip-path="url(#clip-path)">
    <g id="グループ_6" data-name="グループ 6" transform="translate(2709.851 1200.575)">
      <g id="レイヤー_2" data-name="レイヤー 2" transform="translate(0 44.461)">
        <g id="レイヤー_1-2" data-name="レイヤー 1-2" transform="translate(0 0)">
          <path id="パス_50" data-name="パス 50" d="M71.816,60.716a21.477,21.477,0,0,1-1.877,8.269A30.237,30.237,0,0,1,53.692,84.629,36.808,36.808,0,0,1,39.076,87.31,49.859,49.859,0,0,1,27.567,86.1a33.142,33.142,0,0,1-9.409-3.687,32.36,32.36,0,0,1-7.777-6.7,40.518,40.518,0,0,1-5.408-8.4A43.624,43.624,0,0,1,1.62,57.341,55.246,55.246,0,0,1,.5,46.167a50.15,50.15,0,0,1,2.816-17.3,36.942,36.942,0,0,1,8.045-13.141A35.154,35.154,0,0,1,23.633,7.482,39.333,39.333,0,0,1,38.651,4.644,37.3,37.3,0,0,1,55.927,8.51a31.154,31.154,0,0,1,11.621,9.565,18.974,18.974,0,0,1,4.045,10.794,6.906,6.906,0,0,1-1.967,4.894A6.168,6.168,0,0,1,64.888,36a6.7,6.7,0,0,1-4.671-1.5,20.627,20.627,0,0,1-3.464-5.073,24.047,24.047,0,0,0-7.442-8.939,18.1,18.1,0,0,0-10.571-2.95,19.13,19.13,0,0,0-15.89,7.576q-5.922,7.576-5.922,21.544A40.227,40.227,0,0,0,19.544,62.3a19.488,19.488,0,0,0,7.42,9.252,20.538,20.538,0,0,0,11.174,3.062A19.711,19.711,0,0,0,49.96,71.152a21.253,21.253,0,0,0,7.286-10.191,17.007,17.007,0,0,1,2.481-5.14,5.788,5.788,0,0,1,4.917-2.011A6.906,6.906,0,0,1,69.6,55.844,6.7,6.7,0,0,1,71.816,60.716Z" transform="translate(-0.498 4.608)" fill="#fff" stroke="#231815" stroke-miterlimit="10" stroke-width="1"/>
          <path id="パス_51" data-name="パス 51" d="M76.13,4.649A42.864,42.864,0,0,1,97.495,9.678,32.807,32.807,0,0,1,110.9,24.047a49.01,49.01,0,0,1,4.47,21.834,53.369,53.369,0,0,1-2.525,16.873A36.607,36.607,0,0,1,105.317,75.9,32.74,32.74,0,0,1,93,84.41a44.272,44.272,0,0,1-16.761,2.95,44.071,44.071,0,0,1-16.806-3.039,33.031,33.031,0,0,1-12.381-8.537,36.674,36.674,0,0,1-7.509-13.253,53.77,53.77,0,0,1-2.235-16.851,51.669,51.669,0,0,1,2.637-16.9,36.227,36.227,0,0,1,7.665-13.1A33.143,33.143,0,0,1,59.838,7.42,43.467,43.467,0,0,1,76.13,4.649ZM99.216,45.681a37.836,37.836,0,0,0-2.838-15.219,21.343,21.343,0,0,0-8.112-9.744,22.192,22.192,0,0,0-12.09-3.285,21.924,21.924,0,0,0-8.939,1.833,19.4,19.4,0,0,0-7.107,5.319,25.209,25.209,0,0,0-4.671,8.939A39.378,39.378,0,0,0,53.67,45.681a40.451,40.451,0,0,0,1.721,12.336,25.053,25.053,0,0,0,4.85,9.14,20.449,20.449,0,0,0,7.2,5.341,21.544,21.544,0,0,0,8.939,1.81A21.991,21.991,0,0,0,87.818,71.18a21.589,21.589,0,0,0,8.269-9.5A36.942,36.942,0,0,0,99.216,45.681Z" transform="translate(44.936 4.603)" fill="#fff" stroke="#231815" stroke-miterlimit="10" stroke-width="1"/>
          <path id="パス_52" data-name="パス 52" d="M132.82,77.034,129,67H96.481L92.66,77.257a36.362,36.362,0,0,1-3.822,8.112,6.123,6.123,0,0,1-5.185,2.1,7.643,7.643,0,0,1-5.408-2.235,6.883,6.883,0,0,1-2.235-5.118,10.928,10.928,0,0,1,.559-3.4c.358-1.162.961-2.771,1.788-4.85L98.828,19.934l1.989-5.475a29.053,29.053,0,0,1,2.615-5.207A10.548,10.548,0,0,1,107.1,5.9a12.873,12.873,0,0,1,11.353,0,10.772,10.772,0,0,1,3.643,3.308,22.728,22.728,0,0,1,2.235,4.336c.648,1.542,1.453,3.6,2.436,6.19l20.9,51.6a26.259,26.259,0,0,1,2.458,8.582,7.107,7.107,0,0,1-2.235,5.1,7.643,7.643,0,0,1-5.587,2.235,6.95,6.95,0,0,1-3.285-.693,6.414,6.414,0,0,1-2.235-1.855,15.332,15.332,0,0,1-1.989-3.6A41.484,41.484,0,0,1,132.82,77.034ZM100.727,54.8H124.64L112.572,21.789Z" transform="translate(92.747 4.538)" fill="#fff" stroke="#231815" stroke-miterlimit="10" stroke-width="1"/>
          <path id="パス_53" data-name="パス 53" d="M184.394,60.691a21.477,21.477,0,0,1-1.877,8.269A30.3,30.3,0,0,1,166.292,84.6a36.92,36.92,0,0,1-14.638,2.682,51.111,51.111,0,0,1-11.509-1.207,33.1,33.1,0,0,1-9.386-3.732,32.36,32.36,0,0,1-7.777-6.7,39.69,39.69,0,0,1-5.386-8.425,44.694,44.694,0,0,1-3.375-9.967A55.244,55.244,0,0,1,113.1,46.075a50.15,50.15,0,0,1,2.816-17.3,37.01,37.01,0,0,1,8.135-13.029A35.467,35.467,0,0,1,136.323,7.5a39.333,39.333,0,0,1,15.018-2.838,37.389,37.389,0,0,1,17.3,3.866A31.533,31.533,0,0,1,180.26,18.1a19.175,19.175,0,0,1,4.023,10.794,7,7,0,0,1-1.944,4.894,6.235,6.235,0,0,1-4.76,2.235,6.548,6.548,0,0,1-4.671-1.475,20.626,20.626,0,0,1-3.464-5.073A24.047,24.047,0,0,0,162,20.531a18.035,18.035,0,0,0-10.548-2.95,19.175,19.175,0,0,0-15.912,7.576Q129.6,32.733,129.618,46.7a40.226,40.226,0,0,0,2.615,15.644,19.734,19.734,0,0,0,7.42,9.252,20.538,20.538,0,0,0,11.174,3.062,19.711,19.711,0,0,0,11.822-3.464A21.052,21.052,0,0,0,169.935,61a17.074,17.074,0,0,1,2.57-5.14,5.7,5.7,0,0,1,4.894-2.011,6.906,6.906,0,0,1,4.961,2.034A6.7,6.7,0,0,1,184.394,60.691Z" transform="translate(138.544 4.633)" fill="#fff" stroke="#231815" stroke-miterlimit="10" stroke-width="1"/>
          <path id="パス_54" data-name="パス 54" d="M254.3,18.62H236.624V76.726a10.615,10.615,0,0,1-2.235,7.442,8.157,8.157,0,0,1-11.532,0h-.112a10.593,10.593,0,0,1-2.235-7.42V18.642H202.833a8.939,8.939,0,0,1-6.146-1.833,6.191,6.191,0,0,1-2.034-4.827,6.146,6.146,0,0,1,2.1-4.917,9.118,9.118,0,0,1,6.079-1.788h51.513A8.939,8.939,0,0,1,260.6,7.133a6.235,6.235,0,0,1,2.034,4.85,6.123,6.123,0,0,1-2.078,4.827A8.939,8.939,0,0,1,254.3,18.62Z" transform="translate(239.244 5.36)"/>
          <path id="パス_55" data-name="パス 55" d="M282.03,17.759H245.535V37.4h33.523a8,8,0,0,1,5.542,1.654,5.632,5.632,0,0,1,1.833,4.47,5.9,5.9,0,0,1-1.81,4.47,7.911,7.911,0,0,1-5.565,1.7H245.535V72.378h37.746a8.269,8.269,0,0,1,5.766,1.766,6.056,6.056,0,0,1,1.944,4.715,5.9,5.9,0,0,1-1.944,4.6,8.269,8.269,0,0,1-5.766,1.788H239.255a10.37,10.37,0,0,1-7.6-2.235,10.37,10.37,0,0,1-2.235-7.6V15.189a13.409,13.409,0,0,1,1.028-5.7,6.459,6.459,0,0,1,3.263-3.218,13.521,13.521,0,0,1,5.632-1.006h42.842a8.224,8.224,0,0,1,5.766,1.721,5.743,5.743,0,0,1,1.877,4.47,5.9,5.9,0,0,1-1.877,4.47,8.291,8.291,0,0,1-5.922,1.833Z" transform="translate(282.114 5.349)"/>
          <path id="パス_56" data-name="パス 56" d="M332.6,60.716a21.475,21.475,0,0,1-1.877,8.269,30.282,30.282,0,0,1-16.225,15.644,36.919,36.919,0,0,1-14.638,2.682A49.861,49.861,0,0,1,288.347,86.1a33.233,33.233,0,0,1-9.408-3.732,32.361,32.361,0,0,1-7.777-6.7,40.673,40.673,0,0,1-5.408-8.425,45.9,45.9,0,0,1-3.352-9.967A55.246,55.246,0,0,1,261.283,46.1,50.149,50.149,0,0,1,264.1,28.8a37.009,37.009,0,0,1,8.045-13.074,35.154,35.154,0,0,1,12.269-8.247,39.333,39.333,0,0,1,15.018-2.838,37.389,37.389,0,0,1,17.3,3.866,31.534,31.534,0,0,1,11.621,9.565,19.175,19.175,0,0,1,4.023,10.794,7,7,0,0,1-1.944,4.894A6.235,6.235,0,0,1,325.668,36,6.7,6.7,0,0,1,321,34.5a20.628,20.628,0,0,1-3.464-5.073,24.047,24.047,0,0,0-7.442-8.939,18.035,18.035,0,0,0-10.548-2.95,19.175,19.175,0,0,0-15.912,7.576q-5.922,7.576-5.922,21.544A40.226,40.226,0,0,0,280.324,62.3a19.487,19.487,0,0,0,7.42,9.252,20.538,20.538,0,0,0,11.174,3.062,19.711,19.711,0,0,0,11.822-3.464,21.053,21.053,0,0,0,7.286-10.191,17.075,17.075,0,0,1,2.57-5.14,5.7,5.7,0,0,1,4.894-2.011,6.905,6.905,0,0,1,4.961,2.034A6.7,6.7,0,0,1,332.6,60.716Z" transform="translate(321.522 4.608)"/>
          <path id="パス_57" data-name="パス 57" d="M315.955,14.426V37.4H350.93V14.426a10.794,10.794,0,0,1,2.235-7.375,7.42,7.42,0,0,1,5.811-2.436A7.777,7.777,0,0,1,364.9,7.029a10.638,10.638,0,0,1,2.235,7.4V77.448a10.593,10.593,0,0,1-2.235,7.42,7.732,7.732,0,0,1-5.9,2.458,7.42,7.42,0,0,1-5.833-2.481,10.861,10.861,0,0,1-2.235-7.4V50.63H315.955V77.448a10.482,10.482,0,0,1-2.235,7.42,7.71,7.71,0,0,1-5.878,2.458,7.419,7.419,0,0,1-5.833-2.481,10.861,10.861,0,0,1-2.235-7.4V14.426a10.95,10.95,0,0,1,2.235-7.375,7.42,7.42,0,0,1,5.878-2.436A7.777,7.777,0,0,1,313.72,7.1a10.572,10.572,0,0,1,2.235,7.33Z" transform="translate(369.026 4.57)"/>
          <path id="パス_58" data-name="パス 58" d="M197.992,22.344l-6.7,1.028-3.062-3.084a3.777,3.777,0,0,0-2.57-1.207,3.62,3.62,0,0,0-2.034.536l-3.71,2.235-.224-.291h0a3.956,3.956,0,0,0-4.179-1.229L167.4,23.6l-7.2-1.587L160,36.781l4.894.648a2.57,2.57,0,0,0,1.833,1.989,2.526,2.526,0,0,0,.425,1.7,2.615,2.615,0,0,0,1.654,1.073,2.592,2.592,0,0,0,.447,1.453,2.414,2.414,0,0,0,1.475,1.028,2.2,2.2,0,0,0,2.168,2.078,2.033,2.033,0,0,0,1.274-.38l.648-.425.737.894h0a3.486,3.486,0,0,0,2.436,1.252h.268a3.553,3.553,0,0,0,2.369-.849,3.509,3.509,0,0,0,.782-.939,3.889,3.889,0,0,0,3.509-2.235,3.889,3.889,0,0,0,2.436-.939,3.8,3.8,0,0,0,1.162-1.676,3.844,3.844,0,0,0,1.855-.872,4,4,0,0,0,1.341-3.732l6.213-1.162Zm-8.939,16.851a1.319,1.319,0,0,1-1.386-.246l-1.229-1.676a.984.984,0,1,0-1.587,1.162l1.229,1.7h0s.559.76.246,1.319a1.787,1.787,0,0,1-.291.291h0l-.179.134h0a.894.894,0,0,1-.626.156.939.939,0,0,1-.6-.313l-1.251-1.7a.984.984,0,1,0-1.587,1.162l.939,1.3c.156.291.425.894,0,1.3h0l-.469.291a.849.849,0,0,1-.738,0,1.408,1.408,0,0,1-.514-.358l-1.184-1.654a1.006,1.006,0,0,0-1.609,1.184l.872,1.184c.156.268.425.872,0,1.274l-.2.156a1.743,1.743,0,0,1-.76.112,1.5,1.5,0,0,1-1.1-.559l-.737-.894a2.078,2.078,0,0,0,.268-.737,2.235,2.235,0,0,0-.335-1.654h0a2.1,2.1,0,0,0-.894-.76,2.593,2.593,0,0,0-.425-1.765,2.525,2.525,0,0,0-1.654-1.073c0-.514-.581-.827-.872-1.274s-.425-1.05-1.006-1.207a2.548,2.548,0,0,0-2.235-2.794,2.637,2.637,0,0,0-1.676.425l-1.5,1.028a2.816,2.816,0,0,0-.536.492h-.358l-3.084-.4.179-10.548,5.408,1.207.291-.112,8.269-3.308a1.944,1.944,0,0,1,2.056.6h0l-2.034,1.252c-1.408.849,2.481,2.592,3.106,4.112s-2.794,2.056-1.475,2.1a3.307,3.307,0,0,0,1.386-.246l3.665-1.564,6.414,7.777h0C189.947,37.228,189.768,38.837,189.053,39.195Z" transform="translate(196.461 22.442)"/>
          <rect id="長方形_21" data-name="長方形 21" width="15.599" height="65.369" rx="3.26" transform="translate(337.331 27.935)" fill="#fff" stroke="#231815" stroke-miterlimit="10" stroke-width="1"/>
          <circle id="楕円形_3" data-name="楕円形 3" cx="13.409" cy="13.409" r="13.409" transform="translate(391.034)" stroke="#000" stroke-miterlimit="10" stroke-width="1"/>
          <rect id="長方形_22" data-name="長方形 22" width="15.599" height="65.369" rx="3.26" transform="translate(396.621 27.935)"/>
          <circle id="楕円形_4" data-name="楕円形 4" cx="13.409" cy="13.409" r="13.409" transform="translate(331.721)" fill="#fff" stroke="#231815" stroke-miterlimit="10" stroke-width="1"/>
        </g>
      </g>
      <text id="CRM" transform="translate(773.298 132.425)" fill="#1850ba" font-size="122" font-family="LiGothicMed, Apple LiGothic"><tspan x="0" y="0">CRM</tspan></text>
    </g>
  </g>
</svg>
